<?xml version="1.0" encoding="utf-8"?>
<!-- Generator: Adobe Illustrator 26.2.1, SVG Export Plug-In . SVG Version: 6.00 Build 0)  -->
<svg version="1.1" id="Layer_1" xmlns="http://www.w3.org/2000/svg" xmlns:xlink="http://www.w3.org/1999/xlink" x="0px" y="0px"
	 viewBox="0 0 1397 1319" style="enable-background:new 0 0 1397 1319;" xml:space="preserve">
<style type="text/css">
	.st0{fill:#9999FF;}
	.st1{fill:none;stroke:#000000;stroke-width:2;stroke-miterlimit:10;}
	.st2{fill:none;stroke:#00FF66;stroke-width:2;stroke-miterlimit:10;}
	.st3{font-family:'Consolas';}
	.st4{font-size:20px;}
	.st5{font-size:20.5294px;}
	.st6{fill:none;}
	.st7{font-family:'MyriadPro-Regular';}
	.st8{font-size:36px;}
</style>
<g>
	<g transform="translate(6,6)">
		<path class="st0" d="M816,548.3h340v42.1H816V548.3z"/>
		<path class="st0" d="M710.3,905.9H1156V948H710.3V905.9z"/>
		<path class="st0" d="M759,1115.9h397v20.1H759V1115.9z"/>
	</g>
	<g transform="translate(6,6)">
		<path class="st1" d="M798.7,842.8h-75.4v15.8"/>
		<path class="st1" d="M874,832.3h-75.4v10.5"/>
		<path class="st1" d="M703.3,165.5H593.8v38.9"/>
		<path class="st1" d="M888.8,443.2h-90.5v15.8"/>
		<path class="st1" d="M804.7,243.4H593.8v-38.9"/>
		<path class="st1" d="M861.2,579.9h-30.2v-10.5"/>
		<path class="st1" d="M664.1,1111h-74.9v23.7"/>
		<path class="st1" d="M646.6,777.1h-50.8v-53.7"/>
		<path class="st1" d="M794.4,127.7h-4.5v15.8"/>
		<path class="st1" d="M1119.5,306.5h-60.3v-10.5"/>
		<path class="st1" d="M773.9,161.9h-37.7v-42.7"/>
		<path class="st1" d="M807.2,1032.1H656.4v15.8"/>
		<path class="st1" d="M792.8,937.4h-59.8v-10.5"/>
		<path class="st1" d="M680.3,643.6h-75.1v26"/>
		<path class="st1" d="M549.5,1242.4h-75.4v15.8"/>
		<path class="st1" d="M861.2,558.9h-30.2v10.5"/>
		<path class="st1" d="M800,1000.5H619.1V968"/>
		<path class="st1" d="M149.9,1088.7h-108v103.1"/>
		<path class="st1" d="M1119.5,285.4h-60.3v10.5"/>
		<path class="st1" d="M798.4,458.9H723v18.4"/>
		<path class="st1" d="M780.5,22.5h-6.4v15.8"/>
		<path class="st1" d="M817.6,811.2H722v-10.5"/>
		<path class="st1" d="M571.4,946.8h-32V651.9"/>
		<path class="st1" d="M874,853.3h-75.4v-10.5"/>
		<path class="st1" d="M1119.5,327.5H998.9v-15.8"/>
		<path class="st1" d="M800.9,585.1h-45.2v18.4"/>
		<path class="st1" d="M748.5,222.3h-15.6v-10.5"/>
		<path class="st1" d="M544,1162.2h-30.2v24.3"/>
		<path class="st1" d="M837.2,264.4H573.5v-30"/>
		<path class="st1" d="M968.5,390.6H817.8V363"/>
		<path class="st1" d="M767.2,769.2h-30.2v-15.8"/>
		<path class="st1" d="M589.2,1189.8H544v-27.6"/>
		<path class="st1" d="M918.7,516.8H746.5v10.5"/>
		<path class="st1" d="M710.1,969h-60.3v-33.5"/>
		<path class="st1" d="M781.4,958.5h-71.3V969"/>
		<path class="st1" d="M770.1,685h-89.5v10.5"/>
		<path class="st1" d="M658.1,1252.9H549.5v-10.5"/>
		<path class="st1" d="M589,845.7h-17.6v101.1"/>
		<path class="st1" d="M789.9,143.5h-16v18.4"/>
		<path class="st1" d="M1118.5,369.6H980.5V359"/>
		<path class="st1" d="M710.5,623.3h-30.2v20.4"/>
		<path class="st1" d="M735,1095.2h-70.8v15.8"/>
		<path class="st1" d="M873.8,495.8H723v-18.4"/>
		<path class="st1" d="M814.6,180.3h-40.7v-18.4"/>
		<path class="st1" d="M998.9,311.7h-90.5v23.7"/>
		<path class="st1" d="M874,874.3H723.3v-15.8"/>
		<path class="st1" d="M513.8,1186.5h-10.1V919.2"/>
		<path class="st1" d="M593.8,204.4h-20.3v30"/>
		<path class="st1" d="M774.2,38.3h-14.6v18.4"/>
		<path class="st1" d="M573.5,234.4h-3v122.7"/>
		<path class="st1" d="M1062.8,1021.6H807.2v10.5"/>
		<path class="st2" d="M732.9,926.9h-45.2v-25"/>
		<path class="st1" d="M831.1,600.9h-30.2v-15.8"/>
		<path class="st1" d="M817.8,363H667v24.3"/>
		<path class="st1" d="M619.1,968H589V845.7"/>
		<path class="st1" d="M789.5,643h-79.1v-19.7"/>
		<path class="st1" d="M1039.6,453.7H888.8v-10.5"/>
		<path class="st1" d="M754.3,76.4h-18.2v42.7"/>
		<path class="st1" d="M687.7,901.9h-37.9v33.5"/>
		<path class="st1" d="M732.9,211.8h-29.6v-46.3"/>
		<path class="st1" d="M663.6,1274H474.1v-15.8"/>
		<path class="st1" d="M856.1,411.6H667v-24.3"/>
		<path class="st1" d="M787.9,96.1h-33.6V76.4"/>
		<path class="st1" d="M788.1,75.1h-28.6V56.7"/>
		<path class="st1" d="M785.2,916.4h-52.3v10.5"/>
		<path class="st1" d="M778.1,201.3h-45.2v10.5"/>
		<path class="st1" d="M790.8,33h-10.3V22.5"/>
		<path class="st1" d="M593.5,479.8h-23.1V357.1"/>
		<path class="st1" d="M770.4,979.5h-60.3V969"/>
		<path class="st1" d="M539.4,651.9h-35.7v267.3"/>
		<path class="st1" d="M810.4,1105.7H735v-10.5"/>
		<path class="st1" d="M0,1191.9h41.8"/>
		<path class="st1" d="M604.3,1158.3h-15.1v-23.7"/>
		<path class="st1" d="M755.7,603.5h-45.2v19.7"/>
		<path class="st1" d="M723,477.4h-90.7v-45"/>
		<path class="st1" d="M680.5,695.6h-75.4v-26"/>
		<path class="st1" d="M730.2,1295H41.8v-103.1"/>
		<path class="st1" d="M1049.6,537.8H746.5v-10.5"/>
		<path class="st1" d="M980.5,359h-72v-23.7"/>
		<path class="st1" d="M722,800.7h-75.4v-23.7"/>
		<path class="st2" d="M831.1,569.4h-30.2v15.8"/>
		<path class="st1" d="M859,895.4H708.2V877"/>
		<path class="st1" d="M700.3,1231.9H549.5v10.5"/>
		<path class="st1" d="M649.5,1147.8h-45.2v10.5"/>
		<path class="st1" d="M503.7,919.2H149.9v169.5"/>
		<path class="st1" d="M746.5,527.3h-153v-47.5"/>
		<path class="st1" d="M990.8,1063.6H656.4v-15.8"/>
		<path class="st1" d="M718.2,706.1h-37.7v-10.5"/>
		<path class="st1" d="M908.4,335.4h-90.7V363"/>
		<path class="st1" d="M801.9,138.2h-7.5v-10.5"/>
		<path class="st1" d="M605.2,669.6h-9.4v53.7"/>
		<path class="st1" d="M649.8,935.5h-30.7V968"/>
		<path class="st1" d="M589.2,1134.6H544v27.6"/>
		<path class="st1" d="M960,1168.8H604.3v-10.5"/>
		<path class="st1" d="M872.7,727.1h-60.3v10.5"/>
		<path class="st1" d="M595.8,723.3H589v122.3"/>
		<path class="st1" d="M736.2,119.1h-32.9v46.3"/>
		<path class="st1" d="M829,664H680.3v-20.4"/>
		<path class="st1" d="M656.4,1047.9h-85V946.8"/>
		<path class="st1" d="M1107.9,348.5H980.5V359"/>
		<path class="st1" d="M769.8,1210.9h-256v-24.3"/>
		<path class="st1" d="M831.1,622h-75.4v-18.4"/>
		<path class="st1" d="M723.3,858.6h-15.1V877"/>
		<path class="st1" d="M787.7,54.1h-13.5V38.3"/>
		<path class="st1" d="M759.6,56.7h-5.2v19.7"/>
		<path class="st1" d="M1059.2,295.9h-60.3v15.8"/>
		<path class="st1" d="M802,159.2h-12.1v-15.8"/>
		<path class="st1" d="M812.4,737.6h-75.4v15.8"/>
		<path class="st1" d="M957.9,1042.6H807.2v-10.5"/>
		<path class="st1" d="M632.3,432.3h-38.8v47.5"/>
		<path class="st1" d="M570.4,357.1h-31v294.8"/>
		<path class="st1" d="M897.3,474.7h-98.9v-15.8"/>
		<path class="st2" d="M814.9,1126.7H664.1V1111"/>
		<path class="st1" d="M737.1,753.4h-90.5v23.7"/>
		<path class="st1" d="M876.6,748.1h-64.1v-10.5"/>
		<path class="st1" d="M979.3,432.7h-90.5v10.5"/>
		<path class="st1" d="M738.4,1084.7H735v10.5"/>
		<path class="st1" d="M790.4,12h-9.9v10.5"/>
		<path class="st1" d="M667,387.3h-34.7v45"/>
		<path class="st1" d="M801.9,117.2h-7.5v10.5"/>
		<path class="st1" d="M474.1,1258.2H149.9v-169.5"/>
		<path class="st1" d="M797.4,790.2H722v10.5"/>
		<path class="st1" d="M708.2,877h-20.5v25"/>
		<text transform="matrix(1 0 0 1 836.7549 605.918)" class="st3 st4">Panda_ailMel1</text>
	</g>
	<g transform="matrix(1,0,0,1,1402.622,636.9836)">
		<text transform="matrix(1 0 0 1 -601.3885 16.9998)" class="st3 st4">Dog_canFam3</text>
	</g>
	<g transform="matrix(1,0,0,1,1841.7964,447.6885)">
		<text transform="matrix(1 0 0 1 -790.4985 17)" class="st3 st4">Brush_tailed_rat_octDeg1</text>
	</g>
	<g transform="matrix(1,0,0,1,1551.0221,826.2787)">
		<text transform="matrix(1 0 0 1 -665.2906 16.9996)" class="st3 st4">Sheep_oviAri3</text>
	</g>
	<g transform="matrix(1,0,0,1,1429.3075,237.3607)">
		<text transform="matrix(1 0 0 1 -612.8798 17.0001)" class="st3 st4">Bushbaby_otoGar3</text>
	</g>
	<g transform="matrix(1,0,0,1,1528.496,573.8852)">
		<text transform="matrix(1 0 0 1 -655.5907 17.0001)" class="st3 st4">Weddell_seal_lepWed1</text>
	</g>
	<g transform="matrix(1,0,0,1,1181.4541,1267.9672)">
		<text transform="matrix(1 0 0 1 -510.252 18.283)" class="st3 st5">Opossum_monDom5</text>
	</g>
	<g transform="matrix(1,0,0,1,1982.1001,300.459)">
		<text transform="matrix(1 0 0 1 -850.9136 17)" class="st3 st4">Golden_hamster_mesAur1</text>
	</g>
	<g transform="matrix(1,0,0,1,1519.6052,405.623)">
		<text transform="matrix(1 0 0 1 -651.7625 17.0001)" class="st3 st4">Squirrel_speTri1</text>
	</g>
	<g transform="matrix(1,0,0,1,1399.7334,90.1311)">
		<text transform="matrix(1 0 0 1 -600.1445 16.9998)" class="st3 st4">Gibbon_nomLeu3</text>
	</g>
	<g transform="matrix(1,0,0,1,1400.1067,69.0984)">
		<text transform="matrix(1 0 0 1 -600.3059 17.0002)" class="st3 st4">Orangutan_ponAbe2</text>
	</g>
	<g transform="matrix(1,0,0,1,1395.0656,910.4098)">
		<text transform="matrix(1 0 0 1 -598.1349 17.0004)" class="st3 st4">Dolphin_turTru2</text>
	</g>
	<g transform="matrix(1,0,0,1,1382.5502,195.2951)">
		<text transform="matrix(1 0 0 1 -592.7455 16.9998)" class="st3 st4">Marmoset_calJac3</text>
	</g>
	<g transform="matrix(1,0,0,1,1408.3038,931.4426)">
		<text transform="matrix(1 0 0 1 -603.8351 16.9998)" class="st3 st4">Killer_whale_orcOrc1</text>
	</g>
	<g transform="matrix(1,0,0,1,1404.9069,27.0328)">
		<text transform="matrix(1 0 0 1 -602.3727 16.9999)" class="st3 st4">Chimp_panTro4</text>
	</g>
	<g transform="matrix(1,0,0,1,1369.0102,973.5082)">
		<text transform="matrix(1 0 0 1 -586.9155 16.9996)" class="st3 st4">Wild_bactrian_camel_camFer1</text>
	</g>
	<g transform="matrix(1,0,0,1,1528.496,552.8525)">
		<text transform="matrix(1 0 0 1 -655.5907 17.0001)" class="st3 st4">Pacific_walrus_odoRosDiv1</text>
	</g>
	<g transform="matrix(1,0,0,1,1439.1912,1099.7049)">
		<text transform="matrix(1 0 0 1 -617.3489 15.8295)" class="st3 st5">Cape_elephant_shrew_eleEdw1</text>
	</g>
	<g transform="matrix(1,0,0,1,1421.076,994.541)">
		<text transform="matrix(1 0 0 1 -609.3348 17)" class="st3 st4">Pig_susScr3</text>
	</g>
	<g transform="matrix(1,0,0,1,1982.1001,279.4262)">
		<text transform="matrix(1 0 0 1 -850.9136 17.0001)" class="st3 st4">Chinese_hamster_criGri1</text>
	</g>
	<g transform="matrix(1,0,0,1,1298.3262,1289)">
		<text transform="matrix(1 0 0 1 -558.8154 16.8398)" class="st3 st5">Platypus_ornAna1</text>
	</g>
	<g transform="matrix(1,0,0,1,1451.823,805.2459)">
		<text transform="matrix(1 0 0 1 -622.575 17.0002)" class="st3 st4">Megabat_pteVam1</text>
	</g>
	<g transform="matrix(1,0,0,1,1859.3662,531.8197)">
		<text transform="matrix(1 0 0 1 -798.0635 17.0001)" class="st3 st4">Pika_ochPri3</text>
	</g>
	<g transform="matrix(1,0,0,1,1551.0221,847.3115)">
		<text transform="matrix(1 0 0 1 -665.2906 17)" class="st3 st4">Domestic_goat_capHir1</text>
	</g>
	<g transform="matrix(1,0,0,1,1524.5457,889.377)">
		<text transform="matrix(1 0 0 1 -653.8894 16.9999)" class="st3 st4">Tibetan_antelope_panHod1</text>
	</g>
	<g transform="matrix(1,0,0,1,1982.1001,321.4918)">
		<text transform="matrix(1 0 0 1 -850.9136 16.9999)" class="st3 st4">Prairie_vole_micOch1</text>
	</g>
	<g transform="matrix(1,0,0,1,1245.8288,1225.9016)">
		<text transform="matrix(1 0 0 1 -537.0012 17.1698)" class="st3 st5">Tasmanian_devil_sarHar1</text>
	</g>
	<g transform="matrix(1,0,0,1,1156.7225,1141.7705)">
		<text transform="matrix(1 0 0 1 -499.975 16.9426)" class="st3 st5">Cape_golden_mole_chrAsi1</text>
	</g>
	<g transform="matrix(1,0,0,1,1330.5241,216.3279)">
		<text transform="matrix(1 0 0 1 -570.3434 17.0002)" class="st3 st4">Squirrel_monkey_saiBol1</text>
	</g>
	<g transform="matrix(1,0,0,1,1486.2927,258.3934)">
		<text transform="matrix(1 0 0 1 -637.4177 17.0002)" class="st3 st4">Chinese_tree_shrew_tupChi1</text>
	</g>
	<g transform="matrix(1,0,0,1,1756.0209,1057.6393)">
		<text transform="matrix(1 0 0 1 -753.5629 17.0004)" class="st3 st4">Hedgehog_eriEur2</text>
	</g>
	<g transform="matrix(1,0,0,1,1716.9391,384.5902)">
		<text transform="matrix(1 0 0 1 -736.734 17.0001)" class="st3 st4">Lesser_Egyptian_jerboa_jacJac1</text>
	</g>
	<g transform="matrix(1,0,0,1,1277.3807,700.082)">
		<text transform="matrix(1 0 0 1 -547.4598 17.0001)" class="st3 st4">White_rhinoceros_cerSim1</text>
	</g>
	<g transform="matrix(1,0,0,1,1363.3945,763.1803)">
		<text transform="matrix(1 0 0 1 -584.4971 17.0004)" class="st3 st4">Big_brown_bat_eptFus1</text>
	</g>
	<g transform="matrix(1,0,0,1,1424.3326,132.1967)">
		<text transform="matrix(1 0 0 1 -610.7379 17.0001)" class="st3 st4">Crab_eating_macaque_macFas5</text>
	</g>
	<g transform="matrix(1,0,0,1,1701.9667,1162.8033)">
		<text transform="matrix(1 0 0 1 -730.5411 16.5006)" class="st3 st5">Tenrec_echTel2</text>
	</g>
	<g transform="matrix(1,0,0,1,1050.8169,1183.8361)">
		<text transform="matrix(1 0 0 1 -452.9686 17.0567)" class="st3 st5">Aardvark_oryAfe1</text>
	</g>
	<g transform="matrix(1,0,0,1,1629.4399,510.7869)">
		<text transform="matrix(1 0 0 1 -699.0571 17.0002)" class="st3 st4">Rabbit_oryCun2</text>
	</g>
	<g transform="matrix(1,0,0,1,1548.7293,721.1148)">
		<text transform="matrix(1 0 0 1 -664.3035 17.0004)" class="st3 st4">David&apos;s_myotis_myoDav1</text>
	</g>
	<g transform="matrix(1,0,0,1,1471.8683,658.0164)">
		<text transform="matrix(1 0 0 1 -631.2062 17.0002)" class="st3 st4">Cat_felCat8</text>
	</g>
	<g transform="matrix(1,0,0,1,1388.2718,952.4754)">
		<text transform="matrix(1 0 0 1 -595.2094 17.0002)" class="st3 st4">Alpaca_vicPac2</text>
	</g>
	<g transform="matrix(1,0,0,1,1961.6656,342.5246)">
		<text transform="matrix(1 0 0 1 -842.1139 16.9998)" class="st3 st4">Mouse_mm10</text>
	</g>
	<g transform="matrix(1,0,0,1,1368.4515,679.0492)">
		<text transform="matrix(1 0 0 1 -586.6752 16.9996)" class="st3 st4">Horse_equCab2</text>
	</g>
	<g transform="matrix(1,0,0,1,1368.0279,1204.8689)">
		<text transform="matrix(1 0 0 1 -587.7789 17.6137)" class="st3 st5">Armadillo_dasNov3</text>
	</g>
	<g transform="matrix(1,0,0,1,1171.7161,1246.9344)">
		<text transform="matrix(1 0 0 1 -505.2053 16.7267)" class="st3 st5">Wallaby_macEug2</text>
	</g>
	<g transform="matrix(1,0,0,1,1475.5432,615.9508)">
		<text transform="matrix(1 0 0 1 -632.7883 16.9999)" class="st3 st4">Ferret_musFur1</text>
	</g>
	<g transform="matrix(1,0,0,1,1399.3574,48.0656)">
		<text transform="matrix(1 0 0 1 -599.9834 16.9998)" class="st3 st4">Gorilla_gorGor3</text>
	</g>
	<g transform="matrix(1,0,0,1,1980.4109,363.5574)">
		<text transform="matrix(1 0 0 1 -850.1863 17.0002)" class="st3 st4">Rat_r6</text>
	</g>
	<g transform="matrix(1,0,0,1,1424.4676,153.2295)">
		<text transform="matrix(1 0 0 1 -610.7958 17)" class="st3 st4">Baboon_papAnu2</text>
	</g>
	<g transform="matrix(1,0,0,1,1698.3421,1036.6066)">
		<text transform="matrix(1 0 0 1 -728.7268 16.9999)" class="st3 st4">Star-nosed_mole_conCri1</text>
	</g>
	<g transform="matrix(1,0,0,1,1550.5561,489.7541)">
		<text transform="matrix(1 0 0 1 -665.0903 16.9998)" class="st3 st4">Naked_mole_rat_hetGal2</text>
	</g>
	<g transform="matrix(1,0,0,1,1591.9361,468.7213)">
		<text transform="matrix(1 0 0 1 -682.9088 16.9999)" class="st3 st4">Guinea_pig_cavPor3</text>
	</g>
	<g transform="matrix(1,0,0,1,1447.1605,1120.7377)">
		<text transform="matrix(1 0 0 1 -620.661 16.3856)" class="st3 st5">Manatee_triMan1</text>
	</g>
	<g transform="matrix(1,0,0,1,1555.4543,742.1475)">
		<text transform="matrix(1 0 0 1 -667.1985 16.9999)" class="st3 st4">Microbat_myoLuc2</text>
	</g>
	<g transform="matrix(1,0,0,1,1446.5701,174.2623)">
		<text transform="matrix(1 0 0 1 -620.3132 16.9999)" class="st3 st4">Green_monkey_chlSab2</text>
	</g>
	<g transform="matrix(1,0,0,1,1735.8909,426.6557)">
		<text transform="matrix(1 0 0 1 -744.8958 17.0001)" class="st3 st4">Chinchilla_chiLan1</text>
	</g>
	<g transform="matrix(1,0,0,1,1551.0221,868.3443)">
		<text transform="matrix(1 0 0 1 -665.2906 17.0004)" class="st3 st4">Cow_bosTau8</text>
	</g>
	<g transform="matrix(1,0,0,1,1312.7452,1078.6721)">
		<text transform="matrix(1 0 0 1 -563.6877 17.9998)" class="st3 st4">Elephant_loxAfr3</text>
	</g>
	<g transform="matrix(1,0,0,1,1404.1391,6)">
		<text transform="matrix(1 0 0 1 -602.0425 17)" class="st3 st4">Human_hg38</text>
	</g>
	<g transform="matrix(1,0,0,1,1424.3326,111.1639)">
		<text transform="matrix(1 0 0 1 -610.7379 17.0002)" class="st3 st4">Rhesus_rheMac3</text>
	</g>
	<g transform="matrix(1,0,0,1,1416.3473,784.2131)">
		<text transform="matrix(1 0 0 1 -607.2985 16.9998)" class="st3 st4">Black_flying_fox_pteAle1</text>
	</g>
	<g transform="matrix(1,0,0,1,1882.5171,1015.5738)">
		<text transform="matrix(1 0 0 1 -808.0327 17.0004)" class="st3 st4">Shrew_sorAra2</text>
	</g>
</g>
<rect x="1213.3" y="561" class="st6" width="164.7" height="37.3"/>
<text transform="matrix(1 0 0 1 1213.255 586.5199)" class="st7 st8">Pinnipedia</text>
<rect x="1232.6" y="914.3" class="st6" width="126" height="37.3"/>
<text transform="matrix(1 0 0 1 1232.5883 939.8191)" class="st7 st8">Cetacea</text>
<rect x="1240.2" y="1118.5" class="st6" width="110.8" height="37.3"/>
<text transform="matrix(1 0 0 1 1240.1766 1144.0166)" class="st7 st8">Sirenia</text>
</svg>
